<svg width="13" height="13" viewBox="0 0 13 13" fill="none" xmlns="http://www.w3.org/2000/svg">
<mask id="path-2-inside-1" fill="white">
<path d="M3.01923 8.32106L2.33294 12.5282C2.30802 12.6815 2.37248 12.8358 2.49977 12.9258C2.62652 13.0151 2.79389 13.0249 2.93039 12.9491L6.49998 10.9763L10.0696 12.9496C10.1313 12.9832 10.199 13 10.2662 13C10.3485 13 10.4303 12.9751 10.5002 12.9258C10.6275 12.8358 10.6919 12.6815 10.667 12.5282L9.98073 8.32106L12.8841 5.34514C12.9902 5.23627 13.0271 5.07647 12.9789 4.93239C12.9306 4.78777 12.8055 4.68322 12.6549 4.65993L8.65852 4.04947L6.86723 0.233974C6.73344 -0.0509426 6.26598 -0.0509426 6.13219 0.233974L4.34144 4.04947L0.345019 4.65993C0.194436 4.68322 0.0693107 4.78777 0.0211024 4.93239C-0.027106 5.07702 0.00918571 5.23627 0.115352 5.34514L3.01923 8.32106ZM4.67835 4.81972C4.81214 4.79914 4.92698 4.71356 4.98439 4.59114L6.49998 1.36227L8.01556 4.5906C8.07298 4.71302 8.18781 4.79914 8.3216 4.81918L11.7509 5.34297L9.25652 7.89964C9.16606 7.99172 9.12544 8.12172 9.14602 8.24901L9.73102 11.8332L6.6966 10.1562C6.63539 10.1226 6.56769 10.1053 6.49998 10.1053C6.43227 10.1053 6.36456 10.1221 6.30335 10.1562L3.26894 11.8332L3.85394 8.24901C3.87452 8.12172 3.83389 7.99226 3.74344 7.89964L1.24906 5.34297L4.67835 4.81972Z"/>
</mask>
<path d="M3.01923 8.32106L2.33294 12.5282C2.30802 12.6815 2.37248 12.8358 2.49977 12.9258C2.62652 13.0151 2.79389 13.0249 2.93039 12.9491L6.49998 10.9763L10.0696 12.9496C10.1313 12.9832 10.199 13 10.2662 13C10.3485 13 10.4303 12.9751 10.5002 12.9258C10.6275 12.8358 10.6919 12.6815 10.667 12.5282L9.98073 8.32106L12.8841 5.34514C12.9902 5.23627 13.0271 5.07647 12.9789 4.93239C12.9306 4.78777 12.8055 4.68322 12.6549 4.65993L8.65852 4.04947L6.86723 0.233974C6.73344 -0.0509426 6.26598 -0.0509426 6.13219 0.233974L4.34144 4.04947L0.345019 4.65993C0.194436 4.68322 0.0693107 4.78777 0.0211024 4.93239C-0.027106 5.07702 0.00918571 5.23627 0.115352 5.34514L3.01923 8.32106ZM4.67835 4.81972C4.81214 4.79914 4.92698 4.71356 4.98439 4.59114L6.49998 1.36227L8.01556 4.5906C8.07298 4.71302 8.18781 4.79914 8.3216 4.81918L11.7509 5.34297L9.25652 7.89964C9.16606 7.99172 9.12544 8.12172 9.14602 8.24901L9.73102 11.8332L6.6966 10.1562C6.63539 10.1226 6.56769 10.1053 6.49998 10.1053C6.43227 10.1053 6.36456 10.1221 6.30335 10.1562L3.26894 11.8332L3.85394 8.24901C3.87452 8.12172 3.83389 7.99226 3.74344 7.89964L1.24906 5.34297L4.67835 4.81972Z" fill="#353845" fill-opacity="0.5"/>
<path d="M3.01923 8.32106L24.0743 11.7557L25.8078 1.12858L18.2879 -6.57794L3.01923 8.32106ZM2.33294 12.5282L-18.7221 9.09356L-18.724 9.10549L2.33294 12.5282ZM2.49977 12.9258L-9.80863 30.3503L-9.80133 30.3555L-9.79403 30.3606L2.49977 12.9258ZM2.93039 12.9491L-7.38859 -5.72257L-7.4093 -5.71113L-7.42999 -5.69963L2.93039 12.9491ZM6.49998 10.9763L16.8211 -7.69413L6.50139 -13.3989L-3.81901 -7.69532L6.49998 10.9763ZM10.0696 12.9496L-0.251588 31.62L-0.187369 31.6555L-0.122907 31.6906L10.0696 12.9496ZM10.5002 12.9258L22.7975 30.3582L22.8086 30.3503L10.5002 12.9258ZM10.667 12.5282L31.724 9.10549L31.7221 9.09356L10.667 12.5282ZM9.98073 8.32106L-5.28929 -6.57652L-12.8077 1.12982L-11.0743 11.7557L9.98073 8.32106ZM12.8841 5.34514L28.1541 20.2427L28.1578 20.2389L12.8841 5.34514ZM12.9789 4.93239L-7.25972 11.6786L-7.25592 11.69L-7.25211 11.7014L12.9789 4.93239ZM12.6549 4.65993L15.9159 -16.4227L15.8961 -16.4258L15.8763 -16.4288L12.6549 4.65993ZM8.65852 4.04947L-10.6525 13.1156L-5.81513 23.4194L5.43719 25.1382L8.65852 4.04947ZM6.86723 0.233974L26.1783 -8.83213L26.1775 -8.83378L6.86723 0.233974ZM6.13219 0.233974L-13.1781 -8.83378L-13.1799 -8.82989L6.13219 0.233974ZM4.34144 4.04947L7.56277 25.1382L18.8167 23.4191L23.6535 13.1133L4.34144 4.04947ZM0.345019 4.65993L-2.87631 -16.4288L-2.89614 -16.4258L-2.91596 -16.4227L0.345019 4.65993ZM0.115352 5.34514L-15.1584 20.2389L-15.1533 20.2441L0.115352 5.34514ZM4.67835 4.81972L7.8962 25.909L7.90922 25.907L7.92224 25.905L4.67835 4.81972ZM4.98439 4.59114L-14.3274 -4.47349L-14.33 -4.46783L4.98439 4.59114ZM6.49998 1.36227L25.8111 -7.70361L6.49836 -48.8416L-12.8118 -7.70237L6.49998 1.36227ZM8.01556 4.5906L27.33 -4.46837L27.3267 -4.47528L8.01556 4.5906ZM8.3216 4.81918L11.5427 -16.2696L11.5124 -16.2742L11.482 -16.2788L8.3216 4.81918ZM11.7509 5.34297L27.0207 20.2408L56.0144 -9.47695L14.972 -15.7458L11.7509 5.34297ZM9.25652 7.89964L24.4751 22.8497L24.5008 22.8236L24.5263 22.7974L9.25652 7.89964ZM9.14602 8.24901L-11.9138 11.6544L-11.9112 11.67L-11.9087 11.6855L9.14602 8.24901ZM9.73102 11.8332L-0.588019 30.5048L37.8625 51.7549L30.7858 8.39675L9.73102 11.8332ZM6.6966 10.1562L17.0156 -8.51537L16.9871 -8.53116L16.9585 -8.54686L6.6966 10.1562ZM6.30335 10.1562L16.6224 28.8278L16.6571 28.8086L16.6917 28.7893L6.30335 10.1562ZM3.26894 11.8332L-17.7858 8.39676L-24.8625 51.7549L13.588 30.5048L3.26894 11.8332ZM3.85394 8.24901L24.9087 11.6855L24.9112 11.67L24.9137 11.6544L3.85394 8.24901ZM3.74344 7.89964L-11.5264 22.7974L-11.519 22.805L3.74344 7.89964ZM1.24906 5.34297L-1.96879 -15.7463L-43.0199 -9.48259L-14.0208 20.2408L1.24906 5.34297ZM-18.0358 4.88643L-18.7221 9.09356L23.388 15.9628L24.0743 11.7557L-18.0358 4.88643ZM-18.724 9.10549C-20.0546 17.2915 -16.6117 25.5448 -9.80863 30.3503L14.8082 -4.49877C21.3566 0.126943 24.6707 8.07145 23.3899 15.9509L-18.724 9.10549ZM-9.79403 30.3606C-3.02055 35.1368 5.94693 35.6777 13.2908 31.5977L-7.42999 -5.69963C-0.359137 -9.62788 8.27359 -9.10649 14.7936 -4.50908L-9.79403 30.3606ZM13.2494 31.6207L16.819 29.6479L-3.81901 -7.69532L-7.38859 -5.72257L13.2494 31.6207ZM-3.82117 29.6467L-0.251588 31.62L20.3907 -5.72083L16.8211 -7.69413L-3.82117 29.6467ZM-0.122907 31.6906C3.07241 33.4284 6.64486 34.3333 10.2662 34.3333V-8.33336C13.7532 -8.33336 17.1902 -7.46203 20.262 -5.79139L-0.122907 31.6906ZM10.2662 34.3333C14.6612 34.3333 19.0559 32.9976 22.7975 30.3582L-1.79708 -4.50663C1.80473 -7.04744 6.0358 -8.33336 10.2662 -8.33336V34.3333ZM22.8086 30.3503C29.6115 25.5448 33.0546 17.2916 31.724 9.10549L-10.39 15.9509C-11.6707 8.07135 -8.35658 0.126886 -1.80821 -4.49877L22.8086 30.3503ZM31.7221 9.09356L31.0358 4.88643L-11.0743 11.7557L-10.388 15.9628L31.7221 9.09356ZM25.2507 23.2186L28.1541 20.2427L-2.38596 -9.55243L-5.28929 -6.57652L25.2507 23.2186ZM28.1578 20.2389C33.8203 14.4319 35.8046 5.91874 33.2098 -1.83662L-7.25211 11.7014C-9.75053 4.2342 -7.83988 -3.95938 -2.38966 -9.54864L28.1578 20.2389ZM33.2174 -1.8138C30.6121 -9.62978 23.8703 -15.1923 15.9159 -16.4227L9.39396 25.7426C1.74073 24.5588 -4.75082 19.2053 -7.25972 11.6786L33.2174 -1.8138ZM15.8763 -16.4288L11.8798 -17.0392L5.43719 25.1382L9.43361 25.7487L15.8763 -16.4288ZM27.9696 -5.01663L26.1783 -8.83213L-12.4438 9.30008L-10.6525 13.1156L27.9696 -5.01663ZM26.1775 -8.83378C21.7399 -18.284 12.6976 -21.313 6.49971 -21.313C0.301862 -21.313 -8.74044 -18.284 -13.1781 -8.83378L25.4425 9.30173C21.1386 18.467 12.3969 21.3536 6.49971 21.3536C0.602487 21.3536 -8.13919 18.467 -12.4431 9.30173L26.1775 -8.83378ZM-13.1799 -8.82989L-14.9707 -5.01439L23.6535 13.1133L25.4443 9.29784L-13.1799 -8.82989ZM1.12011 -17.0392L-2.87631 -16.4288L3.56635 25.7487L7.56277 25.1382L1.12011 -17.0392ZM-2.91596 -16.4227C-10.8703 -15.1923 -17.6121 -9.62979 -20.2175 -1.8138L20.2597 11.6786C17.7508 19.2053 11.2592 24.5588 3.606 25.7426L-2.91596 -16.4227ZM-20.2175 -1.8138C-22.7783 5.86853 -20.8651 14.3866 -15.1584 20.2389L15.3891 -9.54864C20.8835 -3.91409 22.724 4.2855 20.2597 11.6786L-20.2175 -1.8138ZM-15.1533 20.2441L-12.2494 23.2201L18.2879 -6.57794L15.384 -9.55386L-15.1533 20.2441ZM7.92224 25.905C15.0435 24.8094 21.2063 20.2436 24.2988 13.6501L-14.33 -4.46783C-11.3523 -10.8165 -5.41916 -15.2111 1.43447 -16.2655L7.92224 25.905ZM24.2961 13.6558L25.8117 10.4269L-12.8118 -7.70237L-14.3274 -4.47349L24.2961 13.6558ZM-12.8112 10.4281L-11.2956 13.6565L27.3267 -4.47528L25.8111 -7.70361L-12.8112 10.4281ZM-11.2988 13.6496C-8.23203 20.1882 -2.0832 24.8319 5.16118 25.9171L11.482 -16.2788C18.4588 -15.2336 24.378 -10.7622 27.33 -4.46837L-11.2988 13.6496ZM5.1005 25.9079L8.52979 26.4317L14.972 -15.7458L11.5427 -16.2696L5.1005 25.9079ZM-3.51892 -9.5548L-6.0133 -6.99814L24.5263 22.7974L27.0207 20.2408L-3.51892 -9.5548ZM-5.96211 -7.05043C-10.8684 -2.05599 -13.0039 4.91298 -11.9138 11.6544L30.2058 4.8436C31.2547 11.3305 29.2005 18.0394 24.4751 22.8497L-5.96211 -7.05043ZM-11.9087 11.6855L-11.3237 15.2697L30.7858 8.39675L30.2008 4.81255L-11.9087 11.6855ZM20.0501 -6.83837L17.0156 -8.51537L-3.62244 28.8278L-0.588019 30.5048L20.0501 -6.83837ZM16.9585 -8.54686C13.7978 -10.281 10.2067 -11.228 6.49998 -11.228V31.4386C2.92864 31.4386 -0.527029 30.5263 -3.56526 28.8593L16.9585 -8.54686ZM6.49998 -11.228C2.90079 -11.228 -0.757406 -10.3321 -4.08502 -8.47689L16.6917 28.7893C13.4865 30.5763 9.96375 31.4386 6.49998 31.4386V-11.228ZM-4.01569 -8.51537L-7.0501 -6.83837L13.588 30.5048L16.6224 28.8278L-4.01569 -8.51537ZM24.3237 15.2697L24.9087 11.6855L-17.2008 4.81255L-17.7858 8.39676L24.3237 15.2697ZM24.9137 11.6544C26.0094 4.87823 23.8426 -2.05309 19.0058 -7.00574L-11.519 22.805C-16.1748 18.0376 -18.2604 11.3652 -17.2058 4.8436L24.9137 11.6544ZM19.0133 -6.99814L16.5189 -9.55481L-14.0208 20.2408L-11.5264 22.7974L19.0133 -6.99814ZM4.46691 26.4322L7.8962 25.909L1.4605 -16.2695L-1.96879 -15.7463L4.46691 26.4322Z" fill="#353845" fill-opacity="0.5" mask="url(#path-2-inside-1)"/>
</svg>
