<svg width="158" height="25" viewBox="0 0 158 25" fill="none" xmlns="http://www.w3.org/2000/svg">
<path d="M32.958 19.1201C32.694 19.1201 32.472 19.0301 32.292 18.8501C32.112 18.6701 32.022 18.4481 32.022 18.1841V6.79012H28.134C27.882 6.79012 27.672 6.71212 27.504 6.55612C27.348 6.38812 27.27 6.17812 27.27 5.92612C27.27 5.67412 27.348 5.47012 27.504 5.31412C27.672 5.14612 27.882 5.06212 28.134 5.06212H37.764C38.016 5.06212 38.22 5.14612 38.376 5.31412C38.544 5.47012 38.628 5.67412 38.628 5.92612C38.628 6.17812 38.544 6.38812 38.376 6.55612C38.22 6.71212 38.016 6.79012 37.764 6.79012H33.894V18.1841C33.894 18.4481 33.804 18.6701 33.624 18.8501C33.444 19.0301 33.222 19.1201 32.958 19.1201ZM38.9067 19.1201C38.3067 19.1201 38.0067 18.8201 38.0067 18.2201V10.1741C38.0067 9.57412 38.3067 9.27412 38.9067 9.27412C39.5067 9.27412 39.8067 9.57412 39.8067 10.1741V10.5161C40.1667 10.0961 40.6047 9.76612 41.1207 9.52612C41.6487 9.28612 42.2187 9.16612 42.8307 9.16612C43.5507 9.16612 44.0847 9.28612 44.4327 9.52612C44.7927 9.75412 44.9307 10.0301 44.8467 10.3541C44.7867 10.6061 44.6667 10.7741 44.4867 10.8581C44.3067 10.9301 44.0967 10.9421 43.8567 10.8941C43.0887 10.7381 42.3987 10.7261 41.7867 10.8581C41.1747 10.9901 40.6887 11.2361 40.3287 11.5961C39.9807 11.9561 39.8067 12.4121 39.8067 12.9641V18.2201C39.8067 18.8201 39.5067 19.1201 38.9067 19.1201ZM50.1439 19.1921C49.2679 19.1921 48.4819 18.9761 47.7859 18.5441C47.0899 18.1001 46.5379 17.5061 46.1299 16.7621C45.7339 16.0061 45.5359 15.1541 45.5359 14.2061C45.5359 13.2581 45.7519 12.4061 46.1839 11.6501C46.6279 10.8941 47.2219 10.3001 47.9659 9.86812C48.7219 9.42412 49.5679 9.20212 50.5039 9.20212C51.4399 9.20212 52.2799 9.42412 53.0239 9.86812C53.7679 10.3001 54.3559 10.8941 54.7879 11.6501C55.2319 12.4061 55.4539 13.2581 55.4539 14.2061V18.2201C55.4539 18.4841 55.3639 18.7061 55.1839 18.8861C55.0159 19.0541 54.7999 19.1381 54.5359 19.1381C54.2719 19.1381 54.0499 19.0541 53.8699 18.8861C53.7019 18.7061 53.6179 18.4841 53.6179 18.2201V17.5541C53.1979 18.0581 52.6879 18.4601 52.0879 18.7601C51.4999 19.0481 50.8519 19.1921 50.1439 19.1921ZM50.5039 17.5721C51.1159 17.5721 51.6619 17.4281 52.1419 17.1401C52.6219 16.8401 52.9999 16.4381 53.2759 15.9341C53.5519 15.4181 53.6899 14.8421 53.6899 14.2061C53.6899 13.5581 53.5519 12.9821 53.2759 12.4781C52.9999 11.9621 52.6219 11.5601 52.1419 11.2721C51.6619 10.9721 51.1159 10.8221 50.5039 10.8221C49.9039 10.8221 49.3579 10.9721 48.8659 11.2721C48.3859 11.5601 48.0019 11.9621 47.7139 12.4781C47.4379 12.9821 47.2999 13.5581 47.2999 14.2061C47.2999 14.8421 47.4379 15.4181 47.7139 15.9341C48.0019 16.4381 48.3859 16.8401 48.8659 17.1401C49.3579 17.4281 49.9039 17.5721 50.5039 17.5721ZM59.2844 19.1201C59.0204 19.1201 58.7984 19.0361 58.6184 18.8681C58.4504 18.6881 58.3664 18.4661 58.3664 18.2021V10.1921C58.3664 9.91612 58.4504 9.69412 58.6184 9.52612C58.7984 9.35812 59.0204 9.27412 59.2844 9.27412C59.5604 9.27412 59.7824 9.35812 59.9504 9.52612C60.1184 9.69412 60.2024 9.91612 60.2024 10.1921V18.2021C60.2024 18.4661 60.1184 18.6881 59.9504 18.8681C59.7824 19.0361 59.5604 19.1201 59.2844 19.1201ZM59.2844 7.67212C58.9604 7.67212 58.6784 7.55812 58.4384 7.33012C58.2104 7.09012 58.0964 6.80812 58.0964 6.48412C58.0964 6.16012 58.2104 5.88412 58.4384 5.65612C58.6784 5.41612 58.9604 5.29612 59.2844 5.29612C59.6084 5.29612 59.8844 5.41612 60.1124 5.65612C60.3524 5.88412 60.4724 6.16012 60.4724 6.48412C60.4724 6.80812 60.3524 7.09012 60.1124 7.33012C59.8844 7.55812 59.6084 7.67212 59.2844 7.67212ZM64.536 19.1381C64.272 19.1381 64.05 19.0541 63.87 18.8861C63.702 18.7061 63.618 18.4841 63.618 18.2201V10.1921C63.618 9.91612 63.702 9.69412 63.87 9.52612C64.05 9.35812 64.272 9.27412 64.536 9.27412C64.812 9.27412 65.034 9.35812 65.202 9.52612C65.37 9.69412 65.454 9.91612 65.454 10.1921V10.3901C65.826 10.0181 66.276 9.72412 66.804 9.50812C67.332 9.29212 67.902 9.18412 68.514 9.18412C69.342 9.18412 70.08 9.36412 70.728 9.72412C71.388 10.0721 71.904 10.5881 72.276 11.2721C72.66 11.9561 72.852 12.7961 72.852 13.7921V18.2201C72.852 18.4841 72.762 18.7061 72.582 18.8861C72.414 19.0541 72.198 19.1381 71.934 19.1381C71.67 19.1381 71.448 19.0541 71.268 18.8861C71.1 18.7061 71.016 18.4841 71.016 18.2201V13.7921C71.016 12.7721 70.74 12.0281 70.188 11.5601C69.648 11.0801 68.97 10.8401 68.154 10.8401C67.65 10.8401 67.194 10.9421 66.786 11.1461C66.378 11.3501 66.054 11.6261 65.814 11.9741C65.574 12.3101 65.454 12.7001 65.454 13.1441V18.2201C65.454 18.4841 65.37 18.7061 65.202 18.8861C65.034 19.0541 64.812 19.1381 64.536 19.1381ZM80.5136 19.1921C79.5176 19.1921 78.6296 18.9821 77.8496 18.5621C77.0816 18.1301 76.4756 17.5421 76.0316 16.7981C75.5996 16.0421 75.3836 15.1781 75.3836 14.2061C75.3836 13.2221 75.5876 12.3581 75.9956 11.6141C76.4156 10.8581 76.9916 10.2701 77.7236 9.85012C78.4556 9.41812 79.2956 9.20212 80.2436 9.20212C81.1796 9.20212 81.9836 9.41212 82.6556 9.83212C83.3276 10.2401 83.8376 10.8101 84.1856 11.5421C84.5456 12.2621 84.7256 13.0961 84.7256 14.0441C84.7256 14.2721 84.6476 14.4641 84.4916 14.6201C84.3356 14.7641 84.1376 14.8361 83.8976 14.8361H77.0576C77.1896 15.6641 77.5676 16.3421 78.1916 16.8701C78.8276 17.3861 79.6016 17.6441 80.5136 17.6441C80.8856 17.6441 81.2636 17.5781 81.6476 17.4461C82.0436 17.3021 82.3616 17.1401 82.6016 16.9601C82.7816 16.8281 82.9736 16.7621 83.1776 16.7621C83.3936 16.7501 83.5796 16.8101 83.7356 16.9421C83.9396 17.1221 84.0476 17.3201 84.0596 17.5361C84.0716 17.7521 83.9756 17.9381 83.7716 18.0941C83.3636 18.4181 82.8536 18.6821 82.2416 18.8861C81.6416 19.0901 81.0656 19.1921 80.5136 19.1921ZM80.2436 10.7501C79.3556 10.7501 78.6416 10.9961 78.1016 11.4881C77.5616 11.9801 77.2196 12.6161 77.0756 13.3961H83.0696C82.9616 12.6281 82.6676 11.9981 82.1876 11.5061C81.7076 11.0021 81.0596 10.7501 80.2436 10.7501ZM91.3417 19.1921C90.3457 19.1921 89.4577 18.9821 88.6777 18.5621C87.9097 18.1301 87.3037 17.5421 86.8597 16.7981C86.4277 16.0421 86.2117 15.1781 86.2117 14.2061C86.2117 13.2221 86.4157 12.3581 86.8237 11.6141C87.2437 10.8581 87.8197 10.2701 88.5517 9.85012C89.2837 9.41812 90.1237 9.20212 91.0717 9.20212C92.0077 9.20212 92.8117 9.41212 93.4837 9.83212C94.1557 10.2401 94.6657 10.8101 95.0137 11.5421C95.3737 12.2621 95.5537 13.0961 95.5537 14.0441C95.5537 14.2721 95.4757 14.4641 95.3197 14.6201C95.1637 14.7641 94.9657 14.8361 94.7257 14.8361H87.8857C88.0177 15.6641 88.3957 16.3421 89.0197 16.8701C89.6557 17.3861 90.4297 17.6441 91.3417 17.6441C91.7137 17.6441 92.0917 17.5781 92.4757 17.4461C92.8717 17.3021 93.1897 17.1401 93.4297 16.9601C93.6097 16.8281 93.8017 16.7621 94.0057 16.7621C94.2217 16.7501 94.4077 16.8101 94.5637 16.9421C94.7677 17.1221 94.8757 17.3201 94.8877 17.5361C94.8997 17.7521 94.8037 17.9381 94.5997 18.0941C94.1917 18.4181 93.6817 18.6821 93.0697 18.8861C92.4697 19.0901 91.8937 19.1921 91.3417 19.1921ZM91.0717 10.7501C90.1837 10.7501 89.4697 10.9961 88.9297 11.4881C88.3897 11.9801 88.0477 12.6161 87.9037 13.3961H93.8977C93.7897 12.6281 93.4957 11.9981 93.0157 11.5061C92.5357 11.0021 91.8877 10.7501 91.0717 10.7501ZM101.063 19.1201C100.595 19.1201 100.283 18.8741 100.127 18.3821L96.5094 6.35812C96.3894 5.96212 96.3954 5.65012 96.5274 5.42212C96.6714 5.18212 96.8994 5.06212 97.2114 5.06212C97.4154 5.06212 97.6014 5.12212 97.7694 5.24212C97.9374 5.35012 98.0574 5.52412 98.1294 5.76412L101.081 16.0241L103.799 5.87212C103.847 5.69212 103.955 5.54212 104.123 5.42212C104.291 5.30212 104.483 5.24212 104.699 5.24212C104.891 5.24212 105.071 5.29612 105.239 5.40412C105.419 5.50012 105.533 5.65012 105.581 5.85412L108.335 16.0961L111.323 5.67412C111.443 5.26612 111.749 5.06212 112.241 5.06212C112.577 5.06212 112.793 5.19412 112.889 5.45812C112.985 5.71012 112.985 6.01012 112.889 6.35812L109.271 18.3641C109.187 18.5921 109.061 18.7781 108.893 18.9221C108.737 19.0541 108.551 19.1201 108.335 19.1201C108.107 19.1201 107.909 19.0481 107.741 18.9041C107.585 18.7601 107.471 18.5861 107.399 18.3821L104.717 8.01412L101.999 18.3641C101.915 18.5921 101.789 18.7781 101.621 18.9221C101.465 19.0541 101.279 19.1201 101.063 19.1201ZM116.906 19.1921C116.03 19.1921 115.244 18.9761 114.548 18.5441C113.852 18.1001 113.3 17.5061 112.892 16.7621C112.496 16.0061 112.298 15.1541 112.298 14.2061C112.298 13.2581 112.514 12.4061 112.946 11.6501C113.39 10.8941 113.984 10.3001 114.728 9.86812C115.484 9.42412 116.33 9.20212 117.266 9.20212C118.202 9.20212 119.042 9.42412 119.786 9.86812C120.53 10.3001 121.118 10.8941 121.55 11.6501C121.994 12.4061 122.216 13.2581 122.216 14.2061V18.2201C122.216 18.4841 122.126 18.7061 121.946 18.8861C121.778 19.0541 121.562 19.1381 121.298 19.1381C121.034 19.1381 120.812 19.0541 120.632 18.8861C120.464 18.7061 120.38 18.4841 120.38 18.2201V17.5541C119.96 18.0581 119.45 18.4601 118.85 18.7601C118.262 19.0481 117.614 19.1921 116.906 19.1921ZM117.266 17.5721C117.878 17.5721 118.424 17.4281 118.904 17.1401C119.384 16.8401 119.762 16.4381 120.038 15.9341C120.314 15.4181 120.452 14.8421 120.452 14.2061C120.452 13.5581 120.314 12.9821 120.038 12.4781C119.762 11.9621 119.384 11.5601 118.904 11.2721C118.424 10.9721 117.878 10.8221 117.266 10.8221C116.666 10.8221 116.12 10.9721 115.628 11.2721C115.148 11.5601 114.764 11.9621 114.476 12.4781C114.2 12.9821 114.062 13.5581 114.062 14.2061C114.062 14.8421 114.2 15.4181 114.476 15.9341C114.764 16.4381 115.148 16.8401 115.628 17.1401C116.12 17.4281 116.666 17.5721 117.266 17.5721ZM126.712 23.4401C126.592 23.4401 126.448 23.4041 126.28 23.3321C125.752 23.0921 125.608 22.7141 125.848 22.1981L127.648 18.1481L123.598 10.4621C123.478 10.2341 123.46 10.0181 123.544 9.81412C123.64 9.59812 123.802 9.44212 124.03 9.34612C124.258 9.25012 124.474 9.24412 124.678 9.32812C124.882 9.40012 125.038 9.55012 125.146 9.77812L128.44 16.3301L131.338 9.79612C131.578 9.29212 131.956 9.14812 132.472 9.36412C133.012 9.59212 133.162 9.97012 132.922 10.4981L127.414 22.8821C127.27 23.2541 127.036 23.4401 126.712 23.4401Z" fill="black"/>
<g clip-path="url(#clip0)">
<path d="M8.22456 4.69587C7.49253 4.96087 6.96803 5.63378 6.96803 6.42678C6.96803 6.73217 7.05289 7.01637 7.18992 7.27086C6.60929 7.48478 6.19385 8.02129 6.19385 8.65254C6.19385 9.28397 6.60929 9.82031 7.18992 10.0344C7.05289 10.2889 6.96803 10.5731 6.96803 10.8783C6.96803 11.6715 7.49253 12.3444 8.22456 12.6092C8.16653 12.7646 8.12929 12.9298 8.12929 13.1041C8.12929 13.9224 8.82371 14.5879 9.67765 14.5879C9.87044 14.5879 10.0532 14.5497 10.2235 14.4881C10.4743 14.9842 11.0003 15.3298 11.6131 15.3298C12.467 15.3298 13.1615 14.6644 13.1615 13.846V3.45909C13.1615 2.64091 12.467 1.97525 11.6131 1.97525C11.0003 1.97525 10.4743 2.32103 10.2235 2.81698C10.0532 2.75539 9.87044 2.71717 9.67765 2.71717C8.82371 2.71717 8.12929 3.38284 8.12929 4.20101C8.12929 4.37545 8.16653 4.54046 8.22456 4.69587ZM9.67765 3.45909C10.1046 3.45909 10.4518 3.79183 10.4518 4.20101H11.226C11.226 3.84454 11.0886 3.52104 10.8692 3.2651C10.9589 2.95065 11.2566 2.71717 11.6131 2.71717C12.0401 2.71717 12.3873 3.04991 12.3873 3.45909V13.846C12.3873 14.2552 12.0401 14.5879 11.6131 14.5879C11.2566 14.5879 10.9589 14.3546 10.8692 14.04C11.0886 13.784 11.226 13.4607 11.226 13.1041H10.4518C10.4518 13.5133 10.1046 13.846 9.67765 13.846C9.25068 13.846 8.90347 13.5133 8.90347 13.1041C8.90347 12.6949 9.25068 12.3622 9.67765 12.3622V11.6202C9.30058 11.6202 8.95923 11.7554 8.69065 11.9705C8.15179 11.8744 7.74221 11.4223 7.74221 10.8783C7.74221 10.2648 8.2633 9.76543 8.90347 9.76543C9.54383 9.76543 10.0647 10.2648 10.0647 10.8783H10.8389C10.8389 9.85563 9.9708 9.0235 8.90347 9.0235C8.46611 9.0235 8.06654 9.16859 7.74221 9.40425V9.39446C7.31524 9.39446 6.96803 9.06172 6.96803 8.65254C6.96803 8.24336 7.31524 7.91062 7.74221 7.91062V7.90102C8.06654 8.13668 8.46611 8.28158 8.90347 8.28158C9.9708 8.28158 10.8389 7.44964 10.8389 6.42678H10.0647C10.0647 7.04046 9.54383 7.53966 8.90347 7.53966C8.2633 7.53966 7.74221 7.04046 7.74221 6.42678C7.74221 5.88302 8.15179 5.43091 8.69065 5.33473C8.95923 5.54991 9.30058 5.68486 9.67765 5.68486V4.94294C9.25068 4.94294 8.90347 4.61019 8.90347 4.20101C8.90347 3.79183 9.25068 3.45909 9.67765 3.45909Z" fill="black"/>
<path d="M17.4195 2.71717C17.2267 2.71717 17.0441 2.75539 16.8738 2.81698C16.6228 2.32103 16.0968 1.97525 15.484 1.97525C14.6301 1.97525 13.9357 2.64091 13.9357 3.45909V13.846C13.9357 14.6644 14.6301 15.3298 15.484 15.3298C16.0968 15.3298 16.6228 14.9842 16.8738 14.4881C17.0441 14.5497 17.2267 14.5879 17.4195 14.5879C18.2734 14.5879 18.9678 13.9224 18.9678 13.1041C18.9678 12.9298 18.9308 12.7646 18.8726 12.6092C19.6046 12.3444 20.1291 11.6715 20.1291 10.8783C20.1291 10.5731 20.0444 10.2889 19.9074 10.0344C20.488 9.82031 20.9033 9.28397 20.9033 8.65254C20.9033 8.02129 20.488 7.48478 19.9074 7.27086C20.0444 7.01637 20.1291 6.73217 20.1291 6.42678C20.1291 5.63378 19.6046 4.96087 18.8726 4.69587C18.9308 4.54046 18.9678 4.37545 18.9678 4.20101C18.9678 3.38284 18.2734 2.71717 17.4195 2.71717ZM19.3549 6.42678C19.3549 7.04046 18.834 7.53966 18.1936 7.53966C17.5535 7.53966 17.0324 7.04046 17.0324 6.42678H16.2582C16.2582 7.44964 17.1265 8.28158 18.1936 8.28158C18.631 8.28158 19.0306 8.13668 19.3549 7.90102V7.91062C19.7819 7.91062 20.1291 8.24336 20.1291 8.65254C20.1291 9.06172 19.7819 9.39446 19.3549 9.39446V9.40425C19.0306 9.16859 18.631 9.0235 18.1936 9.0235C17.1265 9.0235 16.2582 9.85563 16.2582 10.8783H17.0324C17.0324 10.2648 17.5535 9.76543 18.1936 9.76543C18.834 9.76543 19.3549 10.2648 19.3549 10.8783C19.3549 11.4223 18.9453 11.8744 18.4067 11.9705C18.1379 11.7554 17.7965 11.6202 17.4195 11.6202V12.3622C17.8464 12.3622 18.1936 12.6949 18.1936 13.1041C18.1936 13.5133 17.8464 13.846 17.4195 13.846C16.9925 13.846 16.6453 13.5133 16.6453 13.1041H15.8711C15.8711 13.4607 16.0085 13.784 16.228 14.04C16.1382 14.3546 15.8405 14.5879 15.484 14.5879C15.0571 14.5879 14.7098 14.2552 14.7098 13.846V3.45909C14.7098 3.04991 15.0571 2.71717 15.484 2.71717C15.8405 2.71717 16.1382 2.95065 16.228 3.2651C16.0085 3.52104 15.8711 3.84454 15.8711 4.20101H16.6453C16.6453 3.79183 16.9925 3.45909 17.4195 3.45909C17.8464 3.45909 18.1936 3.79183 18.1936 4.20101C18.1936 4.61019 17.8464 4.94294 17.4195 4.94294V5.68486C17.7965 5.68486 18.1379 5.54991 18.4067 5.33473C18.9453 5.43091 19.3549 5.88302 19.3549 6.42678Z" fill="black"/>
<path d="M19.6442 2.43391C17.8354 0.804616 15.4663 -0.0122947 12.9801 0.137684L13.0281 0.877975C15.2998 0.742668 17.4621 1.48713 19.1142 2.97441C20.7671 4.46296 21.6775 6.47988 21.6775 8.65257C21.6775 11.2709 20.3157 13.6988 18.0346 15.1475C17.2477 15.6474 16.6524 16.3605 16.2855 17.1847H10.7957C10.4238 16.3545 9.82612 15.6363 9.03795 15.1319C6.68707 13.6261 5.33622 11.1115 5.42411 8.40406L4.65031 8.38105C4.55392 11.3458 6.03366 14.1002 8.60796 15.7485C9.1765 16.1127 9.6305 16.6087 9.9469 17.1847H8.90357V17.9266H10.2557C10.3308 18.167 10.3909 18.4133 10.4213 18.6685H9.67775V19.4104H10.4519V20.5233C10.4519 20.7285 10.6254 20.8943 10.839 20.8943H11.2261C11.2261 22.1218 12.2677 23.12 13.5486 23.12C14.8296 23.12 15.8712 22.1218 15.8712 20.8943H16.2583C16.472 20.8943 16.6454 20.7285 16.6454 20.5233V19.4104H17.4195V18.6685H16.6726C16.7 18.4137 16.7546 18.1666 16.8281 17.9266H18.1937V17.1847H17.1336C17.4454 16.615 17.8968 16.1252 18.4625 15.7662C20.9602 14.1788 22.4517 11.5197 22.4517 8.65257C22.4517 6.30744 21.4282 4.04056 19.6442 2.43391ZM13.5486 22.3781C12.6947 22.3781 12.0003 21.7126 12.0003 20.8943H15.097C15.097 21.7126 14.4026 22.3781 13.5486 22.3781ZM15.8712 20.1524H11.2261V19.4104H15.8712V20.1524ZM15.8988 18.6685H11.1951C11.1692 18.416 11.1274 18.1679 11.0639 17.9266H16.0192C15.9576 18.1675 15.9218 18.4167 15.8988 18.6685Z" fill="black"/>
<path d="M4.25843 2.71718C5.11237 2.71718 5.80679 3.38284 5.80679 4.20102C5.80679 4.40625 5.9803 4.57198 6.19387 4.57198C6.40764 4.57198 6.58096 4.40625 6.58096 4.20102C6.58096 3.38284 7.27538 2.71718 8.12932 2.71718C8.34309 2.71718 8.51641 2.55144 8.51641 2.34622C8.51641 2.14118 8.34309 1.97526 8.12932 1.97526C7.27538 1.97526 6.58096 1.30977 6.58096 0.491414C6.58096 0.286371 6.40764 0.120453 6.19387 0.120453C5.9803 0.120453 5.80679 0.286371 5.80679 0.491414C5.80679 1.30977 5.11237 1.97526 4.25843 1.97526C4.04485 1.97526 3.87134 2.14118 3.87134 2.34622C3.87134 2.55144 4.04485 2.71718 4.25843 2.71718ZM6.19387 1.7204C6.36587 1.96819 6.58834 2.18157 6.8469 2.34622C6.58834 2.51105 6.36587 2.72424 6.19387 2.97203C6.02207 2.72424 5.79941 2.51105 5.54085 2.34622C5.79941 2.18157 6.02207 1.96819 6.19387 1.7204Z" fill="black"/>
<path d="M5.80681 6.42686C6.02058 6.42686 6.1939 6.26113 6.1939 6.0559C6.1939 5.85086 6.02058 5.68494 5.80681 5.68494C4.95287 5.68494 4.25845 5.01946 4.25845 4.2011C4.25845 3.99606 4.08513 3.83014 3.87136 3.83014C3.65778 3.83014 3.48427 3.99606 3.48427 4.2011C3.48427 5.01946 2.78986 5.68494 1.93592 5.68494C1.72234 5.68494 1.54883 5.85086 1.54883 6.0559C1.54883 6.26113 1.72234 6.42686 1.93592 6.42686C2.78986 6.42686 3.48427 7.09253 3.48427 7.91071C3.48427 8.11593 3.65778 8.28167 3.87136 8.28167C4.08513 8.28167 4.25845 8.11593 4.25845 7.91071C4.25845 7.09253 4.95287 6.42686 5.80681 6.42686ZM3.87136 6.68172C3.69956 6.43393 3.4769 6.22074 3.21834 6.0559C3.4769 5.89125 3.69918 5.67788 3.87136 5.43009C4.04336 5.67788 4.26583 5.89089 4.52439 6.0559C4.26583 6.22074 4.04336 6.43393 3.87136 6.68172Z" fill="black"/>
</g>
<defs>
<clipPath id="clip0">
<rect y="0.120117" width="24" height="23" fill="white"/>
</clipPath>
</defs>
</svg>
