<svg width="24" height="23" viewBox="0 0 24 23" fill="none" xmlns="http://www.w3.org/2000/svg">
<path d="M20.1703 17.6858C19.6849 17.3022 19.0934 17.026 18.4517 16.892L15.3924 16.2782C15.0716 16.2169 14.84 15.9295 14.84 15.5947V14.893C15.0367 14.6168 15.2222 14.2499 15.4162 13.8663C15.5668 13.5692 15.7942 13.1214 15.9072 13.0056C16.5266 12.3834 17.125 11.6845 17.3106 10.7833C17.4835 9.93797 17.3134 9.49436 17.1139 9.13724C17.1139 8.24584 17.086 7.12984 16.8753 6.31795C16.8502 5.21869 16.6507 4.6007 16.1485 4.05944C15.7942 3.67582 15.2725 3.58654 14.8526 3.51539C14.688 3.48749 14.4606 3.44843 14.3769 3.40379C13.6333 3.00203 12.8982 2.80534 12.0207 2.78999C10.1835 2.86532 7.925 4.03433 7.16891 6.11846C6.93455 6.75319 6.95827 7.79525 6.9778 8.63225L6.95966 9.13585C6.77971 9.48739 6.60254 9.93379 6.77692 10.7819C6.96106 11.6845 7.55951 12.3848 8.19005 13.0153C8.29328 13.1214 8.52625 13.5733 8.6797 13.8719C8.87639 14.2541 9.06332 14.6196 9.26002 14.8944V15.5961C9.26002 15.9295 9.02705 16.2169 8.70481 16.2796L5.64278 16.8934C5.00527 17.0288 4.41379 17.3022 3.92972 17.6858C3.77906 17.8072 3.6842 17.9843 3.66886 18.1768C3.65351 18.3694 3.71768 18.5577 3.84742 18.7014C5.93155 21.0003 8.92103 22.32 12.05 22.32C15.179 22.32 18.1699 21.0017 20.2526 18.7014C20.3824 18.5577 20.4479 18.368 20.4312 18.1754C20.4158 17.9829 20.321 17.8058 20.1703 17.6858Z" fill="#353845"/>
</svg>
